<svg width="192.421753" height="200.000000" viewBox="0 0 192.422 200" fill="none" xmlns="http://www.w3.org/2000/svg" xmlns:xlink="http://www.w3.org/1999/xlink">
	<desc>
			Created with Pixso.
	</desc>
	<path d="M100 200C72.3858 200 48.8156 190.237 29.2893 170.711C9.76312 151.184 0 127.614 0 100C0 72.3858 9.76309 48.8156 29.2893 29.2893C48.8155 9.76311 72.3858 0 100 0C127.614 0 151.184 9.76311 170.711 29.2893C183.688 42.2663 172.101 61 153.749 61L145 61C138.561 61 131.489 60.5795 126.023 57.1761C118.339 52.392 109.665 50 100 50C86.1929 50 74.4077 54.8816 64.6447 64.6447C54.8815 74.4078 50 86.1929 50 100C50 113.807 54.8816 125.592 64.6447 135.355C74.4078 145.118 86.1929 150 100 150C109.665 150 118.34 147.608 126.023 142.824C131.489 139.42 138.561 139 145 139L153.749 139C172.101 139 183.688 157.734 170.711 170.711C151.184 190.237 127.614 200 100 200Z" fill="#6D50F0" fill-opacity="1.000000"/>
	<defs/>
</svg>
